<?xml version="1.0" encoding="UTF-8" standalone="no"?>
<!DOCTYPE svg PUBLIC "-//W3C//DTD SVG 1.1//EN"
 "http://www.w3.org/Graphics/SVG/1.1/DTD/svg11.dtd">
<!-- Generated by graphviz version 2.42.4 (0)
 -->
<!-- Pages: 1 -->
<svg width="332pt" height="135pt"
 viewBox="0.00 0.00 332.00 135.00" xmlns="http://www.w3.org/2000/svg" xmlns:xlink="http://www.w3.org/1999/xlink">
<g id="graph0" class="graph" transform="scale(1 1) rotate(0) translate(4 131)">
<polygon fill="white" stroke="transparent" points="-4,4 -4,-131 328,-131 328,4 -4,4"/>
<!-- status_id -->
<g id="node1" class="node">
<title>status_id</title>
<polygon fill="lightgray" stroke="black" points="276.5,-127 55.5,-127 55.5,-89 276.5,-89 276.5,-127"/>
<text text-anchor="middle" x="166" y="-111.8" font-family="Times,serif" font-size="14.00">STATUS_ENCODE(bank, bit)</text>
<text text-anchor="middle" x="166" y="-96.8" font-family="Times,serif" font-size="14.00">Encoded Status ID (16 bits)</text>
</g>
<!-- bank_field -->
<g id="node2" class="node">
<title>bank_field</title>
<polygon fill="lightblue" stroke="black" points="162,-53 0,-53 0,0 162,0 162,-53"/>
<text text-anchor="middle" x="81" y="-37.8" font-family="Times,serif" font-size="14.00">Bits 4–15</text>
<text text-anchor="middle" x="81" y="-22.8" font-family="Times,serif" font-size="14.00">Bank Field (12 bits)</text>
<text text-anchor="middle" x="81" y="-7.8" font-family="Times,serif" font-size="14.00">Valid Range: 0–4095</text>
</g>
<!-- status_id&#45;&gt;bank_field -->
<g id="edge1" class="edge">
<title>status_id&#45;&gt;bank_field</title>
<path fill="none" stroke="black" d="M146.71,-88.96C137.57,-80.41 126.36,-69.92 115.8,-60.05"/>
<polygon fill="black" stroke="black" points="117.96,-57.28 108.27,-53 113.18,-62.39 117.96,-57.28"/>
</g>
<!-- bit_field -->
<g id="node3" class="node">
<title>bit_field</title>
<polygon fill="lightyellow" stroke="black" points="324,-53 180,-53 180,0 324,0 324,-53"/>
<text text-anchor="middle" x="252" y="-37.8" font-family="Times,serif" font-size="14.00">Bits 0–3</text>
<text text-anchor="middle" x="252" y="-22.8" font-family="Times,serif" font-size="14.00">Bit Field (4 bits)</text>
<text text-anchor="middle" x="252" y="-7.8" font-family="Times,serif" font-size="14.00">Valid Range: 0–15</text>
</g>
<!-- status_id&#45;&gt;bit_field -->
<g id="edge2" class="edge">
<title>status_id&#45;&gt;bit_field</title>
<path fill="none" stroke="black" d="M185.51,-88.96C194.77,-80.41 206.11,-69.92 216.79,-60.05"/>
<polygon fill="black" stroke="black" points="219.44,-62.36 224.41,-53 214.69,-57.22 219.44,-62.36"/>
</g>
</g>
</svg>
